Coordinates
version=1
nRows=8
nColumns=63
inDegrees=yes

Units are S.I. units (second, meters, Newtons, ...)
If the header above contains a line with 'inDegrees', this indicates whether rotational values are in degrees (yes) or radians (no).

endheader
time	pelvis_tilt	pelvis_list	pelvis_rotation	pelvis_tx	pelvis_ty	pelvis_tz	hip_flexion_r	hip_adduction_r	hip_rotation_r	knee_angle_r	knee_angle_r_beta	ankle_angle_r	subtalar_angle_r	mtp_angle_r	hip_flexion_l	hip_adduction_l	hip_rotation_l	knee_angle_l	knee_angle_l_beta	ankle_angle_l	subtalar_angle_l	mtp_angle_l	L5_S1_Flex_Ext	L5_S1_Lat_Bending	L5_S1_axial_rotation	L4_L5_Flex_Ext	L4_L5_Lat_Bending	L4_L5_axial_rotation	L3_L4_Flex_Ext	L3_L4_Lat_Bending	L3_L4_axial_rotation	L2_L3_Flex_Ext	L2_L3_Lat_Bending	L2_L3_axial_rotation	L1_L2_Flex_Ext	L1_L2_Lat_Bending	L1_L2_axial_rotation	L1_T12_Flex_Ext	L1_T12_Lat_Bending	L1_T12_axial_rotation	Abs_r3	Abs_r2	Abs_r1	Abs_t1	Abs_t2	neck_flexion	neck_bending	neck_rotation	arm_flex_r	arm_add_r	arm_rot_r	elbow_flex_r	pro_sup_r	wrist_flex_r	wrist_dev_r	arm_flex_l	arm_add_l	arm_rot_l	elbow_flex_l	pro_sup_l	wrist_flex_l	wrist_dev_l
      0.76595745	      5.49775143	     -8.79895857	    111.42610424	      0.35673104	      0.43192455	      0.98625838	     17.31268689	     -2.83832493	     -9.91935442	      8.95104555	      0.15622522	     15.57512107	     10.87864048	      0.00000000	     18.01080102	      1.13390109	     -9.90405973	     10.38067448	      0.18117695	     17.30143976	      2.47190169	      0.00000000	      0.03913462	     -0.86886545	      0.82323122	      0.07267690	     -1.15559105	      0.87468317	      0.06429427	     -2.11255946	      0.87468317	      0.04472696	     -2.11255946	      0.72032732	      0.03634041	     -1.77179043	      0.66887537	      0.02236152	     -1.34587258	      0.61742341	      0.27953468	     -9.82877976	      4.57856507	      0.00000000	      0.00000000	     20.03470840	      9.30046019	    -13.64603301	     67.38918651	    -24.38780005	     20.58935548	    133.04128073	     85.79354267	     45.50844051	     19.49749463	     32.94281499	    -26.63269228	     65.19863869	     23.38985052	     79.75706295	     -0.07947568	      2.95844426
      0.78723404	      5.65085891	     -8.81925547	    111.49117835	      0.35626824	      0.43139917	      0.98629279	     17.15894962	     -2.70970562	    -10.34969808	      8.66288737	      0.15119591	     15.55303898	     11.38272701	      0.00000000	     18.21303860	      0.97631728	    -10.21419304	     10.56991793	      0.18447987	     17.83713305	      3.39662883	      0.00000000	      0.03347177	     -0.81896933	      0.78478926	      0.06216043	     -1.08922922	      0.83383859	      0.05499078	     -1.99124204	      0.83383859	      0.03825489	     -1.99124204	      0.68669060	      0.03108189	     -1.67004227	      0.63764127	      0.01912577	     -1.26858350	      0.58859194	      0.23908553	     -9.26434491	      4.36476242	      0.00000000	      0.00000000	     20.40863970	      8.43541462	    -12.43252980	     68.26042292	    -24.66673563	     19.03145126	    132.40363811	     84.03789029	     42.26288520	     17.02306876	     32.69357346	    -26.73353227	     66.22328062	     23.43341676	     81.34084556	      0.58588456	      4.57554421
      0.80851064	      5.75558717	     -8.70880505	    111.46945850	      0.35592728	      0.43143974	      0.98642951	     16.93409128	     -2.56291834	    -10.63114319	      8.43137816	      0.14715531	     15.42868673	     11.76447394	      0.00000000	     18.28138407	      0.78653162	    -10.63042280	     10.77369308	      0.18803642	     18.25817132	      4.28643928	      0.00000000	      0.01969856	     -0.77515921	      0.73059817	      0.03658220	     -1.03096175	      0.77626055	      0.03236277	     -1.88472210	      0.77626055	      0.02251349	     -1.88472210	      0.63927340	      0.01829209	     -1.58070465	      0.59361101	      0.01125576	     -1.20072161	      0.54794863	      0.14070487	     -8.76875598	      4.06336782	      0.00000000	      0.00000000	     20.53421065	      7.88689309	    -11.48006383	     69.29572143	    -24.65365906	     18.59946228	    128.86683231	     82.90063651	     37.06810207	     14.45705209	     32.71657342	    -26.86691920	     69.33501195	     23.50340244	     84.94681380	      0.63695654	      5.44276579
      0.82978723	      5.75952070	     -8.51887479	    111.29853956	      0.35609969	      0.43211246	      0.98644966	     16.67734005	     -2.42345414	    -10.75000478	      8.28373958	      0.14457853	     15.32798616	     12.03931143	      0.00000000	     18.21768377	      0.52152680	    -11.82723804	     11.00156224	      0.19201348	     18.61068760	      5.96092921	      0.00000000	      0.00323055	     -0.76364003	      0.77748067	      0.00599945	     -1.01564124	      0.82607321	      0.00530746	     -1.85671436	      0.82607321	      0.00369219	     -1.85671436	      0.68029559	      0.00299988	     -1.55721474	      0.63170304	      0.00184593	     -1.18287840	      0.58311050	      0.02307547	     -8.63844872	      4.32411424	      0.00000000	      0.00000000	     20.24769265	      7.76275642	    -12.00753970	     70.05781515	    -25.36469952	     19.22127184	    123.84785450	     84.61417297	     28.02626532	      9.17009529	     34.09185766	    -26.17307801	     79.80657967	     21.77856371	     85.72781017	     -1.55660827	      2.56888673
      0.85106383	      5.77441283	     -8.34016541	    111.22633040	      0.35639166	      0.43281159	      0.98642212	     16.41471139	     -2.25703631	    -10.55037666	      8.07028698	      0.14085308	     15.20223076	     11.82055924	      0.00000000	     18.21202811	      0.35029493	    -11.99241289	     11.27928777	      0.19686071	     18.59836620	      6.09479182	      0.00000000	     -0.00810355	     -0.76456773	      0.75850082	     -0.01504910	     -1.01687507	      0.80590712	     -0.01331332	     -1.85896997	      0.80590712	     -0.00926155	     -1.85896997	      0.66368822	     -0.00752496	     -1.55910651	      0.61628191	     -0.00463037	     -1.18431541	      0.56887561	     -0.05788284	     -8.64894302	      4.21855400	      0.00000000	      0.00000000	     19.65793032	      7.87927422	    -12.81587731	     71.42151278	    -25.84527899	     20.79693286	    117.61366631	     84.84654623	     20.44132140	      4.58206759	     34.28537680	    -25.77970909	     86.33626164	     20.78293094	     85.94724290	     -4.33484525	      0.17394300
      0.87234043	      5.69843332	     -8.32202659	    111.13878519	      0.35707275	      0.43340761	      0.98603557	     16.30857190	     -2.21331176	    -10.26629628	      7.94275096	      0.13862716	     15.16775237	     11.54020942	      0.00000000	     18.27330465	      0.28725889	    -12.24648923	     11.49534085	      0.20063155	     18.36011840	      6.17700181	      0.00000000	     -0.01318423	     -0.80026393	      0.72793695	     -0.02448444	     -1.06435103	      0.77343301	     -0.02166038	     -1.94576172	      0.77343301	     -0.01506826	     -1.94576172	      0.63694483	     -0.01224288	     -1.63189820	      0.59144877	     -0.00753347	     -1.23960883	      0.54595271	     -0.09417366	     -9.05274561	      4.04856692	      0.00000000	      0.00000000	     19.16312970	      8.41531543	    -14.16642998	     73.02363466	    -26.41541212	     22.80123143	    111.10963522	     85.35610259	     13.95769322	      0.92415154	     33.49867660	    -26.00925027	     87.62329709	     20.68742808	     85.06021066	     -5.67073324	     -1.51496899
      0.89361702	      5.64442364	     -8.54017330	    111.09942331	      0.35796334	      0.43369438	      0.98561376	     16.50200319	     -2.24367060	     -9.99186465	      7.94218027	      0.13861720	     15.16571249	     11.20992826	      0.00000000	     18.56790518	      0.28853344	    -12.52100168	     11.68253068	      0.20389863	     17.96302881	      6.21323770	      0.00000000	     -0.01562691	     -0.85542646	      0.70336200	     -0.02902073	     -1.13771720	      0.74732213	     -0.02567344	     -2.07988390	      0.74732213	     -0.01785999	     -2.07988390	      0.61544175	     -0.01451115	     -1.74438564	      0.57148163	     -0.00892921	     -1.32505559	      0.52752150	     -0.11162143	     -9.67675524	      3.91188845	      0.00000000	      0.00000000	     19.20264479	      8.73938661	    -16.46218373	     74.75830677	    -27.01582234	     24.82616252	    105.07937609	     86.27506263	      9.37736722	      0.92597702	     31.95028297	    -26.73839997	     84.41758807	     21.46446312	     81.89813451	     -5.65169502	     -2.78681424
      0.91489362	      5.73351650	     -8.88017952	    111.27832820	      0.35834326	      0.43350980	      0.98523472	     16.78571576	     -2.21410253	     -9.49464600	      7.83543357	      0.13675411	     15.10636214	     10.25872606	      0.00000000	     19.05151342	      0.25198759	    -12.79300583	     11.88708798	      0.20746882	     17.73374927	      6.64008017	      0.00000000	     -0.01038546	     -0.89020944	      0.63841376	     -0.01928684	     -1.18397856	      0.67831462	     -0.01706228	     -2.16445523	      0.67831462	     -0.01186954	     -2.16445523	      0.55861204	     -0.00964394	     -1.81531509	      0.51871118	     -0.00593425	     -1.37893442	      0.47881032	     -0.07418232	    -10.07022723	      3.55066583	      0.00000000	      0.00000000	     19.43819264	      9.14131594	    -17.94991277	     77.08287759	    -28.45873009	     29.23344730	    100.31670291	     87.45620751	      1.89002411	      2.54468240	     29.86825161	    -27.34461202	     78.44589796	     22.45322730	     78.89486086	     -4.35982220	     -3.17102928
